<svg width="1068" height="401" viewBox="0 0 1068 401" fill="none" xmlns="http://www.w3.org/2000/svg">
<mask id="path-1-inside-1_129_196" fill="white">
<path d="M0 0H1068V401H0V0Z"/>
</mask>
<path d="M0 402H1.99254V400H0V402ZM13.9478 402H17.9328V400H13.9478V402ZM29.8881 402H33.8731V400H29.8881V402ZM45.8284 402H49.8134V400H45.8284V402ZM61.7687 402H65.7537V400H61.7687V402ZM77.709 402H81.694V400H77.709V402ZM93.6493 402H97.6343V400H93.6493V402ZM109.59 402H113.575V400H109.59V402ZM125.53 402H129.515V400H125.53V402ZM141.47 402H145.455V400H141.47V402ZM157.41 402H161.396V400H157.41V402ZM173.351 402H177.336V400H173.351V402ZM189.291 402H193.276V400H189.291V402ZM205.231 402H209.216V400H205.231V402ZM221.172 402H225.157V400H221.172V402ZM237.112 402H241.097V400H237.112V402ZM253.052 402H257.037V400H253.052V402ZM268.993 402H272.978V400H268.993V402ZM284.933 402H288.918V400H284.933V402ZM300.873 402H304.858V400H300.873V402ZM316.814 402H320.799V400H316.814V402ZM332.754 402H336.739V400H332.754V402ZM348.694 402H352.679V400H348.694V402ZM364.634 402H368.62V400H364.634V402ZM380.575 402H384.56V400H380.575V402ZM396.515 402H400.5V400H396.515V402ZM412.455 402H416.44V400H412.455V402ZM428.396 402H432.381V400H428.396V402ZM444.336 402H448.321V400H444.336V402ZM460.276 402H464.261V400H460.276V402ZM476.217 402H480.202V400H476.217V402ZM492.157 402H496.142V400H492.157V402ZM508.097 402H512.082V400H508.097V402ZM524.037 402H528.023V400H524.037V402ZM539.978 402H543.963V400H539.978V402ZM555.918 402H559.903V400H555.918V402ZM571.858 402H575.843V400H571.858V402ZM587.798 402H591.784V400H587.798V402ZM603.739 402H607.724V400H603.739V402ZM619.679 402H623.664V400H619.679V402ZM635.619 402H639.604V400H635.619V402ZM651.559 402H655.544V400H651.559V402ZM667.5 402H671.485V400H667.5V402ZM683.44 402H687.425V400H683.44V402ZM699.38 402H703.365V400H699.38V402ZM715.32 402H719.305V400H715.32V402ZM731.261 402H735.246V400H731.261V402ZM747.201 402H751.186V400H747.201V402ZM763.141 402H767.126V400H763.141V402ZM779.081 402H783.066V400H779.081V402ZM795.022 402H799.007V400H795.022V402ZM810.962 402H814.947V400H810.962V402ZM826.902 402H830.887V400H826.902V402ZM842.842 402H846.827V400H842.842V402ZM858.783 402H862.768V400H858.783V402ZM874.723 402H878.708V400H874.723V402ZM890.663 402H894.648V400H890.663V402ZM906.603 402H910.588V400H906.603V402ZM922.544 402H926.529V400H922.544V402ZM938.484 402H942.469V400H938.484V402ZM954.424 402H958.409V400H954.424V402ZM970.364 402H974.349V400H970.364V402ZM986.305 402H990.29V400H986.305V402ZM1002.24 402H1006.23V400H1002.24V402ZM1018.19 402H1022.17V400H1018.19V402ZM1034.13 402H1038.11V400H1034.13V402ZM1050.07 402H1054.05V400H1050.07V402ZM1066.01 402H1068V400H1066.01V402ZM1068 -1H1066.01V1H1068V-1ZM1054.05 -1H1050.07V1H1054.05V-1ZM1038.11 -1H1034.13V1H1038.11V-1ZM1022.17 -1H1018.19V1H1022.17V-1ZM1006.23 -1H1002.25V1H1006.23V-1ZM990.291 -1H986.306V1H990.291V-1ZM974.351 -1H970.366V1H974.351V-1ZM958.41 -1H954.425V1H958.41V-1ZM942.47 -1H938.485V1H942.47V-1ZM926.53 -1H922.545V1H926.53V-1ZM910.59 -1H906.604V1H910.59V-1ZM894.649 -1H890.664V1H894.649V-1ZM878.709 -1H874.724V1H878.709V-1ZM862.769 -1H858.784V1H862.769V-1ZM846.828 -1H842.843V1H846.828V-1ZM830.888 -1H826.903V1H830.888V-1ZM814.948 -1H810.963V1H814.948V-1ZM799.007 -1H795.022V1H799.007V-1ZM783.067 -1H779.082V1H783.067V-1ZM767.127 -1H763.142V1H767.127V-1ZM751.186 -1H747.201V1H751.186V-1ZM735.246 -1H731.261V1H735.246V-1ZM719.306 -1H715.321V1H719.306V-1ZM703.366 -1H699.38V1H703.366V-1ZM687.425 -1H683.44V1H687.425V-1ZM671.485 -1H667.5V1H671.485V-1ZM655.545 -1H651.56V1H655.545V-1ZM639.604 -1H635.619V1H639.604V-1ZM623.664 -1H619.679V1H623.664V-1ZM607.724 -1H603.739V1H607.724V-1ZM591.783 -1H587.798V1H591.783V-1ZM575.843 -1H571.858V1H575.843V-1ZM559.903 -1H555.918V1H559.903V-1ZM543.963 -1H539.977V1H543.963V-1ZM528.022 -1H524.037V1H528.022V-1ZM512.082 -1H508.097V1H512.082V-1ZM496.142 -1H492.157V1H496.142V-1ZM480.202 -1H476.217V1H480.202V-1ZM464.261 -1H460.276V1H464.261V-1ZM448.321 -1H444.336V1H448.321V-1ZM432.381 -1H428.396V1H432.381V-1ZM416.441 -1H412.456V1H416.441V-1ZM400.5 -1H396.515V1H400.5V-1ZM384.56 -1H380.575V1H384.56V-1ZM368.62 -1H364.635V1H368.62V-1ZM352.68 -1H348.695V1H352.68V-1ZM336.739 -1H332.754V1H336.739V-1ZM320.799 -1H316.814V1H320.799V-1ZM304.859 -1H300.874V1H304.859V-1ZM288.919 -1H284.934V1H288.919V-1ZM272.978 -1H268.993V1H272.978V-1ZM257.038 -1H253.053V1H257.038V-1ZM241.098 -1H237.113V1H241.098V-1ZM225.158 -1H221.173V1H225.158V-1ZM209.217 -1H205.232V1H209.217V-1ZM193.277 -1H189.292V1H193.277V-1ZM177.337 -1H173.352V1H177.337V-1ZM161.397 -1H157.412V1H161.397V-1ZM145.456 -1H141.471V1H145.456V-1ZM129.516 -1H125.531V1H129.516V-1ZM113.576 -1H109.591V1H113.576V-1ZM97.6356 -1H93.6506V1H97.6356V-1ZM81.6954 -1H77.7103V1H81.6954V-1ZM65.7552 -1H61.7701V1H65.7552V-1ZM49.8149 -1H45.8298V1H49.8149V-1ZM33.8746 -1H29.8895V1H33.8746V-1ZM17.9343 -1H13.9492V1H17.9343V-1ZM1.99402 -1H0V1H1.99402V-1ZM0 403H1.99254V399H0V403ZM13.9478 403H17.9328V399H13.9478V403ZM29.8881 403H33.8731V399H29.8881V403ZM45.8284 403H49.8134V399H45.8284V403ZM61.7687 403H65.7537V399H61.7687V403ZM77.709 403H81.694V399H77.709V403ZM93.6493 403H97.6343V399H93.6493V403ZM109.59 403H113.575V399H109.59V403ZM125.53 403H129.515V399H125.53V403ZM141.47 403H145.455V399H141.47V403ZM157.41 403H161.396V399H157.41V403ZM173.351 403H177.336V399H173.351V403ZM189.291 403H193.276V399H189.291V403ZM205.231 403H209.216V399H205.231V403ZM221.172 403H225.157V399H221.172V403ZM237.112 403H241.097V399H237.112V403ZM253.052 403H257.037V399H253.052V403ZM268.993 403H272.978V399H268.993V403ZM284.933 403H288.918V399H284.933V403ZM300.873 403H304.858V399H300.873V403ZM316.814 403H320.799V399H316.814V403ZM332.754 403H336.739V399H332.754V403ZM348.694 403H352.679V399H348.694V403ZM364.634 403H368.62V399H364.634V403ZM380.575 403H384.56V399H380.575V403ZM396.515 403H400.5V399H396.515V403ZM412.455 403H416.44V399H412.455V403ZM428.396 403H432.381V399H428.396V403ZM444.336 403H448.321V399H444.336V403ZM460.276 403H464.261V399H460.276V403ZM476.217 403H480.202V399H476.217V403ZM492.157 403H496.142V399H492.157V403ZM508.097 403H512.082V399H508.097V403ZM524.037 403H528.023V399H524.037V403ZM539.978 403H543.963V399H539.978V403ZM555.918 403H559.903V399H555.918V403ZM571.858 403H575.843V399H571.858V403ZM587.798 403H591.784V399H587.798V403ZM603.739 403H607.724V399H603.739V403ZM619.679 403H623.664V399H619.679V403ZM635.619 403H639.604V399H635.619V403ZM651.559 403H655.544V399H651.559V403ZM667.5 403H671.485V399H667.5V403ZM683.44 403H687.425V399H683.44V403ZM699.38 403H703.365V399H699.38V403ZM715.32 403H719.305V399H715.32V403ZM731.261 403H735.246V399H731.261V403ZM747.201 403H751.186V399H747.201V403ZM763.141 403H767.126V399H763.141V403ZM779.081 403H783.066V399H779.081V403ZM795.022 403H799.007V399H795.022V403ZM810.962 403H814.947V399H810.962V403ZM826.902 403H830.887V399H826.902V403ZM842.842 403H846.827V399H842.842V403ZM858.783 403H862.768V399H858.783V403ZM874.723 403H878.708V399H874.723V403ZM890.663 403H894.648V399H890.663V403ZM906.603 403H910.588V399H906.603V403ZM922.544 403H926.529V399H922.544V403ZM938.484 403H942.469V399H938.484V403ZM954.424 403H958.409V399H954.424V403ZM970.364 403H974.349V399H970.364V403ZM986.305 403H990.29V399H986.305V403ZM1002.24 403H1006.23V399H1002.24V403ZM1018.19 403H1022.17V399H1018.19V403ZM1034.13 403H1038.11V399H1034.13V403ZM1050.07 403H1054.05V399H1050.07V403ZM1066.01 403H1068V399H1066.01V403ZM1068 -2H1066.01V2H1068V-2ZM1054.05 -2H1050.07V2H1054.05V-2ZM1038.11 -2H1034.13V2H1038.11V-2ZM1022.17 -2H1018.19V2H1022.17V-2ZM1006.23 -2H1002.25V2H1006.23V-2ZM990.291 -2H986.306V2H990.291V-2ZM974.351 -2H970.366V2H974.351V-2ZM958.41 -2H954.425V2H958.41V-2ZM942.47 -2H938.485V2H942.47V-2ZM926.53 -2H922.545V2H926.53V-2ZM910.59 -2H906.604V2H910.59V-2ZM894.649 -2H890.664V2H894.649V-2ZM878.709 -2H874.724V2H878.709V-2ZM862.769 -2H858.784V2H862.769V-2ZM846.828 -2H842.843V2H846.828V-2ZM830.888 -2H826.903V2H830.888V-2ZM814.948 -2H810.963V2H814.948V-2ZM799.007 -2H795.022V2H799.007V-2ZM783.067 -2H779.082V2H783.067V-2ZM767.127 -2H763.142V2H767.127V-2ZM751.186 -2H747.201V2H751.186V-2ZM735.246 -2H731.261V2H735.246V-2ZM719.306 -2H715.321V2H719.306V-2ZM703.366 -2H699.38V2H703.366V-2ZM687.425 -2H683.44V2H687.425V-2ZM671.485 -2H667.5V2H671.485V-2ZM655.545 -2H651.56V2H655.545V-2ZM639.604 -2H635.619V2H639.604V-2ZM623.664 -2H619.679V2H623.664V-2ZM607.724 -2H603.739V2H607.724V-2ZM591.783 -2H587.798V2H591.783V-2ZM575.843 -2H571.858V2H575.843V-2ZM559.903 -2H555.918V2H559.903V-2ZM543.963 -2H539.977V2H543.963V-2ZM528.022 -2H524.037V2H528.022V-2ZM512.082 -2H508.097V2H512.082V-2ZM496.142 -2H492.157V2H496.142V-2ZM480.202 -2H476.217V2H480.202V-2ZM464.261 -2H460.276V2H464.261V-2ZM448.321 -2H444.336V2H448.321V-2ZM432.381 -2H428.396V2H432.381V-2ZM416.441 -2H412.456V2H416.441V-2ZM400.5 -2H396.515V2H400.5V-2ZM384.56 -2H380.575V2H384.56V-2ZM368.62 -2H364.635V2H368.62V-2ZM352.68 -2H348.695V2H352.68V-2ZM336.739 -2H332.754V2H336.739V-2ZM320.799 -2H316.814V2H320.799V-2ZM304.859 -2H300.874V2H304.859V-2ZM288.919 -2H284.934V2H288.919V-2ZM272.978 -2H268.993V2H272.978V-2ZM257.038 -2H253.053V2H257.038V-2ZM241.098 -2H237.113V2H241.098V-2ZM225.158 -2H221.173V2H225.158V-2ZM209.217 -2H205.232V2H209.217V-2ZM193.277 -2H189.292V2H193.277V-2ZM177.337 -2H173.352V2H177.337V-2ZM161.397 -2H157.412V2H161.397V-2ZM145.456 -2H141.471V2H145.456V-2ZM129.516 -2H125.531V2H129.516V-2ZM113.576 -2H109.591V2H113.576V-2ZM97.6356 -2H93.6506V2H97.6356V-2ZM81.6954 -2H77.7103V2H81.6954V-2ZM65.7552 -2H61.7701V2H65.7552V-2ZM49.8149 -2H45.8298V2H49.8149V-2ZM33.8746 -2H29.8895V2H33.8746V-2ZM17.9343 -2H13.9492V2H17.9343V-2ZM1.99402 -2H0V2H1.99402V-2Z" fill="#EDD2A0" mask="url(#path-1-inside-1_129_196)"/>
<mask id="path-3-inside-2_129_196" fill="white">
<path d="M214 0H854V401H214V0Z"/>
</mask>
<path d="M214 2H854V-2H214V2ZM854 399H214V403H854V399Z" fill="#EDD2A0" mask="url(#path-3-inside-2_129_196)"/>
</svg>
