<svg width="38" height="30" viewBox="0 0 38 30" fill="none" xmlns="http://www.w3.org/2000/svg">
<path d="M33 15C33 18.2887 31.8422 21.4725 29.7297 23.993C27.6171 26.5135 24.6847 28.2099 21.4465 28.7846C18.2084 29.3593 14.8713 28.7757 12.0204 27.1361C9.16949 25.4965 6.9868 22.9056 5.85506 19.8177" stroke="#4F5D64" stroke-width="2"/>
<path d="M5 15C5 11.7113 6.15779 8.52749 8.27034 6.00698C10.3829 3.48647 13.3153 1.79013 16.5535 1.21542C19.7916 0.64071 23.1287 1.22432 25.9796 2.8639C28.8305 4.50348 31.0132 7.09438 32.1449 10.1823" stroke="#4F5D64" stroke-width="2"/>
<path d="M29 20L33 15L37 20" stroke="#4F5D64" stroke-width="2"/>
<path d="M9 10L5 15L1 10" stroke="#4F5D64" stroke-width="2"/>
</svg>
